<?xml version="1.0" encoding="utf-8"?>
<!-- Generator: Adobe Illustrator 23.0.1, SVG Export Plug-In . SVG Version: 6.00 Build 0)  -->
<svg version="1.1" id="图层_1" xmlns="http://www.w3.org/2000/svg" xmlns:xlink="http://www.w3.org/1999/xlink" x="0px" y="0px"
	 viewBox="0 0 96 34" style="enable-background:new 0 0 96 34;" xml:space="preserve">
<style type="text/css">
	.st0{fill:#E50032;}
	.st1{fill:#FFFFFF;}
</style>
<g>
	<rect y="0" class="st0" width="96" height="34"/>
	<g>
		<path class="st1" d="M32.2,23.54h-5.12V10.46h4.99c1.33,0,2.33,0.28,3.01,0.85c0.68,0.57,1.02,1.39,1.02,2.46
			c0,0.73-0.15,1.33-0.45,1.8c-0.3,0.47-0.73,0.81-1.28,1.03v0.03c1.47,0.42,2.21,1.46,2.21,3.14
			C36.57,22.28,35.11,23.54,32.2,23.54z M31.98,12.54h-2.62v3.38h2.72c0.59,0,1.03-0.14,1.32-0.42c0.29-0.28,0.43-0.71,0.43-1.29
			c0-0.6-0.15-1.03-0.44-1.29C33.1,12.66,32.63,12.54,31.98,12.54z M32.16,17.75h-2.81v3.77h2.86c0.69,0,1.19-0.15,1.51-0.44
			c0.32-0.29,0.48-0.79,0.48-1.5c0-0.64-0.16-1.1-0.48-1.39C33.4,17.9,32.88,17.75,32.16,17.75z"/>
		<path class="st1" d="M41.49,23.78c-1.45,0-2.74-0.32-3.87-0.96l0.33-2.11c1.12,0.64,2.3,0.96,3.53,0.96
			c1.55,0,2.33-0.58,2.33-1.75c0-0.32-0.11-0.59-0.32-0.81c-0.21-0.22-0.47-0.41-0.79-0.56c-0.31-0.15-0.75-0.32-1.29-0.51
			c-0.79-0.29-1.43-0.56-1.92-0.81c-0.49-0.26-0.91-0.63-1.27-1.11c-0.35-0.49-0.53-1.11-0.53-1.86c0-1.12,0.37-2.03,1.12-2.73
			c0.75-0.7,1.86-1.05,3.33-1.05c0.63,0,1.25,0.06,1.87,0.18c0.62,0.12,1.17,0.29,1.65,0.51l-0.31,2.04
			c-1.07-0.39-2.1-0.58-3.09-0.58c-0.81,0-1.4,0.14-1.76,0.42c-0.36,0.28-0.54,0.65-0.54,1.11c0,0.31,0.1,0.57,0.31,0.79
			c0.21,0.22,0.46,0.39,0.76,0.53c0.3,0.14,0.73,0.3,1.29,0.5c0.79,0.27,1.43,0.54,1.93,0.8s0.93,0.63,1.29,1.12
			c0.36,0.49,0.54,1.13,0.54,1.9c0,1.25-0.4,2.23-1.21,2.94C44.07,23.42,42.94,23.78,41.49,23.78z"/>
		<path class="st1" d="M52.51,23.54h-5.12V10.68h4.99c1.33,0,2.33,0.28,3.01,0.84c0.68,0.56,1.02,1.37,1.02,2.42
			c0,0.72-0.15,1.31-0.45,1.77c-0.3,0.46-0.73,0.79-1.28,1.01v0.03c1.47,0.41,2.21,1.44,2.21,3.09
			C56.88,22.3,55.43,23.54,52.51,23.54z M52.29,12.72h-2.62v3.32h2.72c0.59,0,1.03-0.14,1.32-0.41c0.29-0.27,0.43-0.7,0.43-1.27
			c0-0.59-0.15-1.02-0.44-1.27C53.41,12.85,52.94,12.72,52.29,12.72z M52.48,17.85h-2.81v3.7h2.86c0.69,0,1.19-0.14,1.51-0.43
			c0.32-0.29,0.48-0.78,0.48-1.47c0-0.63-0.16-1.09-0.48-1.37C53.72,17.99,53.2,17.85,52.48,17.85z"/>
		<path class="st1" d="M19.23,10.46c-3.61,0-6.54,2.93-6.54,6.54c0,3.61,2.93,6.54,6.54,6.54c3.61,0,6.54-2.93,6.54-6.54
			C25.77,13.39,22.84,10.46,19.23,10.46z M19.23,21.28c-2.37,0-4.28-1.92-4.28-4.28c0-2.37,1.92-4.28,4.28-4.28s4.28,1.92,4.28,4.28
			C23.52,19.37,21.6,21.28,19.23,21.28z"/>
		<path class="st1" d="M64.47,10.46c-3.61,0-6.54,2.93-6.54,6.54s2.93,6.54,6.54,6.54c3.61,0,6.54-2.93,6.54-6.54
			S68.09,10.46,64.47,10.46z M64.47,21.28c-2.37,0-4.28-1.92-4.28-4.28s1.92-4.28,4.28-4.28c2.37,0,4.28,1.92,4.28,4.28
			S66.84,21.28,64.47,21.28z"/>
		<path class="st1" d="M17.53,17h-1.67c0,1.87,1.51,3.38,3.38,3.38v-1.67C18.29,18.71,17.53,17.94,17.53,17z"/>
		<polygon class="st1" points="83.31,10.68 71.27,10.68 71.27,12.88 76.01,12.88 76.01,23.54 78.69,23.54 78.69,12.88 83.31,12.88 
					"/>
	</g>
</g>
</svg>
